<svg xmlns="http://www.w3.org/2000/svg" width="120" height="120">
    <style>
        #leaf-one { opacity: 0; animation: leaf-one 1s ease infinite; } #leaf-two { opacity: 0; animation: leaf-two 1s ease infinite; } #leaf-three { opacity: 0; animation: leaf-three 1s ease infinite; } #leaf-four { opacity: 0; animation: leaf-four 1s ease infinite; } #leaf-five { opacity: 0; animation: leaf-five 1s ease infinite; } @keyframes leaf-one { 0% { opacity: 0; } 10% { opacity: 1; } 50% { opacity: 1; } 60% { opacity: 0; } } @keyframes leaf-two { 10% { opacity: 0; } 20% { opacity: 1; } 60% { opacity: 1; } 70% { opacity: 0; } } @keyframes leaf-three { 20% { opacity: 0; } 30% { opacity: 1; } 70% { opacity: 1; } 80% { opacity: 0; } } @keyframes leaf-four { 30% { opacity: 0; } 40% { opacity: 1; } 80% { opacity: 1; } 90% { opacity: 0; } } @keyframes leaf-five { 40% { opacity: 0; } 50% { opacity: 1; } 90% { opacity: 1; } 100% { opacity: 0; } }
    </style>
    <g id="layer1" transform="translate(-746.907 -319.358)">
        <g id="g6545" transform="matrix(3.94085 0 0 3.94085 -960.058 -2371.027)">
            <g id="leaf-one">
                <g id="g1378" transform="matrix(1.25 0 0 -1.25 448.334 695.87)">
                    <path id="path1380" fill="#e9e9e9" d="M0 0c-.066 1.498-.515 8.167-.568 8.475-.077.282-.296.481-.611.56-.963.24-4.652-.795-5.335-1.5-.218-.228-.3-.511-.235-.761.107-.22 4.676-7.409 4.676-7.409.676-1.096 1.227-.925 1.407-.869.18.056.728.227.666 1.504"/>
                </g>
                <g id="g1398" transform="matrix(1.25 0 0 -1.25 448.712 694.926)">
                    <path id="path1400" fill="#bf2519" d="M0 0c-.065 1.498-.516 8.168-.569 8.477-.076.28-.295.48-.609.559-.965.239-4.653-.794-5.336-1.499-.22-.229-.301-.511-.235-.761.108-.221 4.677-7.41 4.677-7.41.675-1.095 1.226-.925 1.407-.868.179.055.727.225.665 1.502"/>
                </g>
            </g>
            <g id="leaf-two">
                <g id="g1374" transform="matrix(1.25 0 0 -1.25 453.079 699.772)">
                    <path id="path1376" fill="#e9e9e9" d="M0 0c3.78.914 3.925.962 4.075 1.06.229.156.342.412.323.729v.031c-.098.927-1.723 3.342-2.524 3.734-.285.135-.569.126-.803-.03-.146-.098-.255-.238-2.277-3.008 0 0-.915-1.246-.926-1.257-.241-.292-.244-.713-.01-1.074.243-.373.657-.555 1.035-.45l-.02-.032C-.942-.226-.606-.144 0 0"/>
                </g>
                <g id="g1394" transform="matrix(1.25 0 0 -1.25 453.455 698.827)">
                    <path id="path1396" fill="#bf2519" d="M0 0c3.78.916 3.926.964 4.075 1.062.229.154.344.412.324.726 0 .01.002.021 0 .032-.097.928-1.723 3.342-2.524 3.734-.284.136-.568.127-.804-.031-.146-.095-.253-.239-2.277-3.007 0 0-.914-1.245-.925-1.257C-2.372.966-2.376.546-2.14.186c.244-.373.656-.555 1.034-.45l-.019-.032C-.939-.226-.606-.144 0 0"/>
                </g>
            </g>
            <g id="leaf-three">
                <g id="g1370" transform="matrix(1.25 0 0 -1.25 455.223 710.092)">
                    <path id="path1372" fill="#e9e9e9" d="M0 0c.842.335 2.676 2.667 2.804 3.563.044.313-.053.581-.269.754-.139.106-.25.147-3.573 1.239 0 0-1.461.482-1.477.49-.355.138-.757.011-1.028-.324-.282-.343-.326-.794-.099-1.137l.587-.955C-1.08.422-.931.196-.789.084-.569-.087-.288-.118 0 0"/>
                </g>
                <g id="g1390" transform="matrix(1.25 0 0 -1.25 455.604 709.145)">
                    <path id="path1392" fill="#bf2519" d="M0 0c.84.335 2.672 2.666 2.801 3.563.045.312-.053.581-.268.753-.141.106-.248.147-3.574 1.239 0 0-1.459.482-1.478.491-.353.137-.756.01-1.027-.324-.282-.343-.324-.796-.099-1.138l.587-.956C-1.084.422-.933.195-.791.084c.22-.173.5-.201.791-.084"/>
                </g>
            </g>
            <g id="leaf-four">
                <g id="g1366" transform="matrix(1.25 0 0 -1.25 448.16 711.613)">
                    <path id="path1368" fill="#e9e9e9" d="M0 0c.059.168.065.283.074 3.779 0 0 .009 1.545.012 1.562.022.376-.222.722-.624.877-.413.16-.858.062-1.109-.25 0 0-.728-.864-.731-.865-2.505-2.945-2.61-3.079-2.67-3.255a.695.695 0 0 1-.041-.32.837.837 0 0 1 .204-.452C-4.305.383-1.518-.642-.63-.49c.309.056.535.232.63.49"/>
                </g>
                <g id="g1386" transform="matrix(1.25 0 0 -1.25 448.539 710.666)">
                    <path id="path1388" fill="#bf2519" d="M0 0c.058.168.065.283.075 3.779l.009 1.56c.024.379-.221.724-.622.878-.413.159-.858.061-1.108-.25 0 0-.73-.866-.732-.866-2.505-2.943-2.61-3.079-2.671-3.253a.714.714 0 0 1-.04-.321.858.858 0 0 1 .203-.454C-4.305.383-1.519-.642-.629-.49c.309.056.534.23.629.49"/>
                </g>
            </g>
            <g id="leaf-five">
                <g id="g1362" transform="matrix(1.25 0 0 -1.25 438.161 697.873)">
                    <path id="path1364" fill="#e9e9e9" d="M0 0c-.361-.578-.512-2.394-.387-3.601.043-.398.114-.73.221-.927.144-.275.386-.439.662-.448.175-.009.286.02 3.614 1.093l1.487.473c.366.095.616.433.64.866.024.445-.207.836-.583.978L4.61-1.14C1.032.336.873.392.691.394.416.407.171.266 0 0"/>
                </g>
                <g id="g1382" transform="matrix(1.25 0 0 -1.25 438.539 696.928)">
                    <path id="path1384" fill="#bf2519" d="M0 0c-.36-.577-.512-2.394-.387-3.6.044-.398.116-.73.221-.928.144-.274.386-.437.662-.447.177-.009.287.021 3.615 1.091 0 0 1.479.472 1.485.475.369.094.617.433.641.866.024.444-.205.836-.583.978l-1.045.425C1.033.335.872.393.692.395.416.406.171.267 0 0"/>
                </g>
            </g>
        </g>
    </g>
</svg>
